# xmcd
#
# Track frame offsets: 
#        150
#        17385
#        34870
#        51985
#
# Disc length: 850 seconds
#
# Revision: 0
# Processed by: cddbd v1.5.2PL0 Copyright (c) Steve Scherf et al.
# Submitted via: ExactAudioCopy v0.95b3
#
DISCID=28035004
DTITLE=The Animals  - In the Beginning there was Early Animals (UK EP 
DTITLE=1963) FLAC
DYEAR=1900
DGENRE=
TTITLE0=I Just Want To Make Love To You
TTITLE1=Boom Boom
TTITLE2=Big Boss Man
TTITLE3=Pretty Thing
EXTD=
EXTT0=
EXTT1=
EXTT2=
EXTT3=
PLAYORDER=
